#!OML:ASF X:\für Bonn\!DataBase\2005_08_12_Daniel\c3d\Daniel.ASF
:FULLY-SPECIFIED
:DEGREES
243
root 0.366657 16.9985 14.2886 -903.203 45.1662 -176.882
lowerback 13.3226 -2.24785 0.904882
upperback 2.98876 -2.76983 -3.04021
thorax -4.51203 -1.28659 -3.23932
lowerneck 1.39219 7.92039 6.86461
upperneck 15.8908 12.5986 -7.82104
head 5.48018 6.43909 -2.91178
rclavicle -5.40694e-014 3.97569e-014
rhumerus -39.7326 -23.6063 -72.7171
rradius 13.6922
rwrist 40.663
rhand -4.91235 13.9256
rfingers 7.12502
rthumb 20.8776 -14.971
lclavicle -5.40694e-014 3.97569e-014
lhumerus -96.1972 62.8426 -11.1127
lradius 12.9929
lwrist -78.6102
lhand -13.2629 -5.78571
lfingers 7.12502
lthumb 12.8397 23.7994
rfemur 17.5548 -14.2743 12.9391
rtibia 29.5914
rfoot -32.779 -37.1238
rtoes -16.6103
lfemur -24.9268 12.3317 -20.2078
ltibia 50.6122
lfoot -22.5828 11.1444
ltoes -2.03428
244
root 0.400643 17.0059 14.1605 -903.382 43.7837 -177.003
lowerback 13.5026 -2.34225 0.808782
upperback 3.00253 -2.90127 -3.02307
thorax -4.59895 -1.34758 -3.13919
lowerneck 1.227 7.71287 6.67021
upperneck 15.9603 12.2971 -7.67818
head 5.48473 6.28689 -2.84918
rclavicle 1.11319e-014 1.90833e-014
rhumerus -41.0107 -26.418 -70.1172
rradius 12.8647
rwrist 43.9223
rhand -4.98162 13.9553
rfingers 7.12502
rthumb 20.8111 -14.9486
lclavicle 1.11319e-014 1.90833e-014
lhumerus -98.8288 62.9667 -13.9197
lradius 12.8455
lwrist -79.8297
lhand -13.0728 -5.35124
lfingers 7.12502
lthumb 13.0231 24.2222
rfemur 16.8512 -14.8993 12.3518
rtibia 31.6682
rfoot -31.0079 -37.3057
rtoes -12.748
lfemur -24.4152 12.13 -20.5778
ltibia 50.3729
lfoot -22.6475 10.1974
ltoes -2.38949
245
root 0.433715 17.0111 14.036 -903.557 42.418 -177.115
lowerback 13.6793 -2.41269 0.722172
upperback 3.0202 -2.99855 -2.97683
thorax -4.67611 -1.39159 -3.01939
lowerneck 1.10356 7.48059 6.38921
upperneck 16.0219 11.97 -7.53937
head 5.47393 6.11998 -2.77801
rclavicle -1.54058e-014 0
rhumerus -42.4621 -29.0165 -67.3969
rradius 12.1715
rwrist 46.9348
rhand -4.96792 14.0183
rfingers 7.12502
rthumb 20.8242 -14.8842
lclavicle -1.54058e-014 0
lhumerus -100.741 63.1036 -15.8036
lradius 12.7459
lwrist -80.6597
lhand -12.8369 -4.88681
lfingers 7.12502
lthumb 13.2504 24.672
rfemur 16.1025 -15.3859 11.8455
rtibia 33.6929
rfoot -28.8627 -37.3589
rtoes -8.79032
lfemur -23.8959 11.9225 -20.9246
ltibia 50.1329
lfoot -22.7286 9.31429
ltoes -2.72091
246
root 0.465295 17.0166 13.9119 -903.732 41.0706 -177.2
lowerback 13.8426 -2.47928 0.679149
upperback 3.06522 -3.08159 -2.9044
thorax -4.71659 -1.42804 -2.89962
lowerneck 0.976246 7.25612 5.96431
upperneck 16.0625 11.6449 -7.33199
head 5.44688 5.94948 -2.6628
rclavicle -7.95139e-014 3.81667e-014
rhumerus -44.0232 -31.3811 -64.6179
rradius 11.6116
rwrist 49.7081
rhand -4.89322 14.1468
rfingers 7.12502
rthumb 20.896 -14.7477
lclavicle -7.95139e-014 3.81667e-014
lhumerus -101.978 63.2873 -16.8264
lradius 12.6724
lwrist -81.0926
lhand -12.7044 -4.4668
lfingers 7.12502
lthumb 13.3781 25.0837
rfemur 15.3324 -15.7597 11.4129
rtibia 35.6764
rfoot -26.2158 -37.1886
rtoes -5.36233
lfemur -23.3319 11.6466 -21.2361
ltibia 49.8798
lfoot -22.8264 8.50694
ltoes -2.99297
247
root 0.496405 17.0283 13.7857 -903.877 39.7468 -177.251
lowerback 13.9966 -2.54111 0.692105
upperback 3.10026 -3.15156 -2.83505
thorax -4.76452 -1.45926 -2.81697
lowerneck 0.905681 7.02891 5.55201
upperneck 16.0811 11.3202 -7.13359
head 5.40683 5.78162 -2.55458
rclavicle -7.40473e-014 1.11319e-014
rhumerus -45.7196 -33.5231 -61.8106
rradius 11.1267
rwrist 52.3098
rhand -4.85684 14.2886
rfingers 7.12502
rthumb 20.931 -14.6021
lclavicle -7.40473e-014 1.11319e-014
lhumerus -102.14 63.5244 -16.6391
lradius 12.6115
lwrist -80.9401
lhand -12.6024 -4.09852
lfingers 7.12502
lthumb 13.4764 25.4455
rfemur 14.5369 -16.0348 11.0464
rtibia 37.6039
rfoot -23.1003 -36.6993
rtoes -3.10944
lfemur -22.7286 11.2379 -21.524
ltibia 49.5978
lfoot -22.9546 7.8322
ltoes -3.25811
248
root 0.526602 17.0428 13.659 -903.978 38.4356 -177.284
lowerback 14.1537 -2.59877 0.745232
upperback 3.10115 -3.21337 -2.76639
thorax -4.85178 -1.48852 -2.75824
lowerneck 0.852731 6.79017 5.11698
upperneck 16.1388 10.9831 -6.89583
head 5.37402 5.60991 -2.43082
rclavicle -2.28602e-014 9.54166e-015
rhumerus -47.5665 -35.4775 -58.9537
rradius 10.7211
rwrist 54.7712
rhand -4.76625 14.4244
rfingers 7.12502
rthumb 21.018 -14.4567
lclavicle -2.28602e-014 9.54166e-015
lhumerus -100.192 63.8267 -14.0532
lradius 12.6713
lwrist -79.7944
lhand -12.4298 -3.82311
lfingers 7.12502
lthumb 13.6428 25.7098
rfemur 13.6875 -16.3066 10.6997
rtibia 39.4841
rfoot -19.3205 -35.3926
rtoes -2.45246
lfemur -22.1192 10.648 -21.8031
ltibia 49.2899
lfoot -23.1092 7.27778
ltoes -3.32535
249
root 0.556943 17.0558 13.5318 -904.042 37.1208 -177.254
lowerback 14.2849 -2.66515 0.859461
upperback 3.10808 -3.27718 -2.68887
thorax -4.92153 -1.51961 -2.72494
lowerneck 0.851968 6.55336 4.70728
upperneck 16.1621 10.651 -6.68085
head 5.32692 5.44241 -2.31975
rclavicle -5.46658e-015 1.59028e-014
rhumerus -49.4114 -37.1076 -56.2587
rradius 10.4101
rwrist 56.8697
rhand -4.67253 14.551
rfingers 7.12502
rthumb 21.108 -14.3201
lclavicle -5.46658e-015 1.59028e-014
lhumerus -97.4544 64.122 -10.6568
lradius 12.6971
lwrist -78.3095
lhand -12.2827 -3.6794
lfingers 7.12502
lthumb 13.7846 25.8439
rfemur 12.8348 -16.5752 10.4118
rtibia 41.3095
rfoot -15.3041 -32.9872
rtoes -2.82753
lfemur -21.4973 9.92109 -22.0358
ltibia 48.9823
lfoot -23.2651 6.85101
ltoes -3.43562
250
root 0.587324 17.07 13.4058 -904.045 35.8126 -177.194
lowerback 14.3683 -2.73051 0.995312
upperback 3.11504 -3.33608 -2.59268
thorax -4.96497 -1.54894 -2.6864
lowerneck 0.824385 6.32484 4.25269
upperneck 16.1895 10.3266 -6.43968
head 5.28485 5.27636 -2.19104
rclavicle -7.59357e-014 3.81667e-014
rhumerus -51.2146 -38.4995 -53.6873
rradius 10.1574
rwrist 58.7763
rhand -4.57813 14.6998
rfingers 7.12502
rthumb 21.1987 -14.1611
lclavicle -7.59357e-014 3.81667e-014
lhumerus -93.9254 64.3666 -6.3687
lradius 12.7502
lwrist -76.5343
lhand -12.1276 -3.70336
lfingers 7.12502
lthumb 13.934 25.8098
rfemur 11.8795 -16.6793 10.3122
rtibia 43.0967
rfoot -11.7051 -30.0101
rtoes -3.64399
lfemur -20.9099 9.06437 -22.247
ltibia 48.6805
lfoot -23.457 6.51175
ltoes -3.45149
251
root 0.61776 17.0837 13.2794 -904.002 34.4973 -177.078
lowerback 14.4351 -2.8121 1.19974
upperback 3.10487 -3.40837 -2.50071
thorax -5.02263 -1.5869 -2.6885
lowerneck 0.862578 6.09304 3.8594
upperneck 16.2003 10.0037 -6.23227
head 5.23363 5.11501 -2.08448
rclavicle -5.88403e-014 7.15625e-015
rhumerus -52.6019 -39.1815 -51.9561
rradius 10.0218
rwrist 59.7729
rhand -4.45139 14.7399
rfingers 7.12502
rthumb 21.3204 -14.1073
lclavicle -5.88403e-014 7.15625e-015
lhumerus -88.7848 64.3789 -0.340703
lradius 12.8459
lwrist -74.0807
lhand -11.8819 -3.72712
lfingers 7.12502
lthumb 14.1708 25.7696
rfemur 10.8658 -16.7639 10.3445
rtibia 44.8429
rfoot -8.59572 -26.5119
rtoes -4.84575
lfemur -20.3445 8.11943 -22.4113
ltibia 48.4097
lfoot -23.6895 6.22738
ltoes -3.60451
252
root 0.646782 17.0953 13.1535 -903.93 33.1841 -176.964
lowerback 14.4594 -2.89655 1.42759
upperback 3.09368 -3.48187 -2.41836
thorax -5.06048 -1.62609 -2.71508
lowerneck 0.907904 5.85923 3.50267
upperneck 16.212 9.67792 -6.03101
head 5.18539 4.9538 -1.98523
rclavicle 2.54444e-014 7.95139e-016
rhumerus -53.1386 -38.9637 -51.6582
rradius 9.98025
rwrist 59.3461
rhand -4.37641 14.6291
rfingers 7.12502
rthumb 21.3925 -14.2099
lclavicle 2.54444e-014 7.95139e-016
lhumerus -83.4756 64.1526 5.89366
lradius 13.0226
lwrist -71.5998
lhand -11.583 -3.93731
lfingers 7.12502
lthumb 14.4588 25.539
rfemur 9.75891 -16.9397 10.3819
rtibia 46.5519
rfoot -6.21388 -22.1708
rtoes -6.86907
lfemur -19.8228 7.06532 -22.5917
ltibia 48.1521
lfoot -23.9587 6.03755
ltoes -3.80193
253
root 0.674079 17.1042 13.028 -903.879 31.8805 -176.867
lowerback 14.4968 -2.98361 1.66161
upperback 3.08743 -3.55686 -2.34013
thorax -5.10135 -1.66574 -2.74865
lowerneck 0.966458 5.63442 3.15852
upperneck 16.2001 9.36543 -5.85457
head 5.13196 4.79854 -1.89498
rclavicle 7.95139e-015 -1.98785e-014
rhumerus -53.6496 -38.7504 -51.383
rradius 9.97409
rwrist 58.958
rhand -4.31692 14.5836
rfingers 7.12502
rthumb 21.4496 -14.2489
lclavicle 7.95139e-015 -1.98785e-014
lhumerus -78.1498 63.6767 12.1439
lradius 13.2348
lwrist -69.1426
lhand -11.1599 -4.19293
lfingers 7.12502
lthumb 14.8665 25.2537
rfemur 8.61369 -17.2195 10.4099
rtibia 48.1922
rfoot -4.72705 -17.4844
rtoes -10.1027
lfemur -19.2859 5.9295 -22.8015
ltibia 47.9032
lfoot -24.2149 5.94625
ltoes -3.92969
254
root 0.700615 17.1129 12.9021 -903.836 30.5923 -176.802
lowerback 14.5201 -3.08575 1.86373
upperback 3.07904 -3.65724 -2.27351
thorax -5.13758 -1.71757 -2.77187
lowerneck 1.03415 5.43191 2.85772
upperneck 16.1817 9.08566 -5.70623
head 5.08137 4.66002 -1.81831
rclavicle -8.49804e-014 1.43125e-014
rhumerus -54.1211 -38.5034 -51.1953
rradius 10.0267
rwrist 58.5621
rhand -4.29356 14.5297
rfingers 7.12502
rthumb 21.472 -14.3003
lclavicle -8.49804e-014 1.43125e-014
lhumerus -73.3118 63.0179 17.8793
lradius 13.4972
lwrist -66.8656
lhand -10.7844 -4.47741
lfingers 7.12502
lthumb 15.2281 24.9421
rfemur 7.40402 -17.5116 10.4344
rtibia 49.7197
rfoot -3.82966 -12.8226
rtoes -13.2131
lfemur -18.7385 4.71832 -23.0432
ltibia 47.6475
lfoot -24.4871 5.92365
ltoes -3.95421
255
root 0.727963 17.1229 12.776 -903.791 29.3071 -176.778
lowerback 14.4881 -3.20543 1.99371
upperback 3.08234 -3.79191 -2.20692
thorax -5.12931 -1.78472 -2.7501
lowerneck 1.14476 5.25198 2.59671
upperneck 16.1112 8.83723 -5.60723
head 5.01406 4.53701 -1.76332
rclavicle -7.97127e-014 4.21423e-014
rhumerus -53.8609 -37.6329 -52.131
rradius 10.1193
rwrist 57.1527
rhand -4.29762 14.3505
rfingers 7.12502
rthumb 21.4681 -14.4799
lclavicle -7.97127e-014 4.21423e-014
lhumerus -68.6248 62.142 23.5005
lradius 13.8211
lwrist -64.4837
lhand -10.3779 -4.80359
lfingers 7.12502
lthumb 15.6197 24.5858
rfemur 6.13654 -17.7214 10.5051
rtibia 51.0766
rfoot -3.37149 -8.60739
rtoes -15.052
lfemur -18.1946 3.46683 -23.3319
ltibia 47.375
lfoot -24.7334 5.9811
ltoes -4.06148
